<?xml version="1.0" encoding="UTF-8" standalone="no"?>
<!-- Created with Inkscape (http://www.inkscape.org/) -->

<svg
   xmlns:dc="http://purl.org/dc/elements/1.1/"
   xmlns:cc="http://creativecommons.org/ns#"
   xmlns:rdf="http://www.w3.org/1999/02/22-rdf-syntax-ns#"
   xmlns:svg="http://www.w3.org/2000/svg"
   xmlns="http://www.w3.org/2000/svg"
   xmlns:sodipodi="http://sodipodi.sourceforge.net/DTD/sodipodi-0.dtd"
   xmlns:inkscape="http://www.inkscape.org/namespaces/inkscape"
   width="744.09448819"
   height="1052.3622047"
   id="svg2"
   version="1.1"
   inkscape:version="0.48.4 r9939"
   sodipodi:docname="rituals.svg">
  <defs
     id="defs4" />
  <sodipodi:namedview
     id="base"
     pagecolor="#ffffff"
     bordercolor="#666666"
     borderopacity="1.0"
     inkscape:pageopacity="0.0"
     inkscape:pageshadow="2"
     inkscape:zoom="0.80983234"
     inkscape:cx="237.74408"
     inkscape:cy="747.82902"
     inkscape:document-units="px"
     inkscape:current-layer="layer1"
     showgrid="false"
     inkscape:window-width="935"
     inkscape:window-height="696"
     inkscape:window-x="276"
     inkscape:window-y="946"
     inkscape:window-maximized="0" />
  <metadata
     id="metadata7">
    <rdf:RDF>
      <cc:Work
         rdf:about="">
        <dc:format>image/svg+xml</dc:format>
        <dc:type
           rdf:resource="http://purl.org/dc/dcmitype/StillImage" />
        <dc:title></dc:title>
      </cc:Work>
    </rdf:RDF>
  </metadata>
  <g
     inkscape:label="Layer 1"
     inkscape:groupmode="layer"
     id="layer1">
    <g
       id="g4589">
      <path
         transform="matrix(0.64196758,0,0,0.67945872,-115.0571,-164.95447)"
         d="m 605,503.86218 a 190.5,145.5 0 1 1 -381,0 190.5,145.5 0 1 1 381,0 z"
         sodipodi:ry="145.5"
         sodipodi:rx="190.5"
         sodipodi:cy="503.86218"
         sodipodi:cx="414.5"
         id="path2987"
         style="fill:#000000;stroke:#000000;stroke-opacity:1"
         sodipodi:type="arc" />
      <path
         transform="matrix(0.67784283,0,0,0.52935142,-137.54343,-111.52137)"
         d="m 556,315.36218 a 135,34 0 1 1 -270,0 135,34 0 1 1 270,0 z"
         sodipodi:ry="34"
         sodipodi:rx="135"
         sodipodi:cy="315.36218"
         sodipodi:cx="421"
         id="path3757"
         style="fill:#000000;stroke:#000000;stroke-opacity:1"
         sodipodi:type="arc" />
      <rect
         y="55.416046"
         x="55.057079"
         height="36.59491"
         width="184.90059"
         id="rect3759"
         style="fill:#000000;stroke:none" />
      <rect
         y="90.726921"
         x="65.971352"
         height="32.1008"
         width="163.71407"
         id="rect3778"
         style="fill:#000000;stroke:#000000;stroke-width:9.11662674;stroke-miterlimit:4;stroke-opacity:1;stroke-dasharray:none" />
      <path
         transform="matrix(0.73952117,0,0,0.78986999,-153.64425,-235.39368)"
         d="m 571,532.36218 a 159,94 0 1 1 -318,0 159,94 0 1 1 318,0 z"
         sodipodi:ry="94"
         sodipodi:rx="159"
         sodipodi:cy="532.36218"
         sodipodi:cx="412"
         id="path3776"
         style="fill:#ffffff;stroke:#000000;stroke-width:14.19999981;stroke-miterlimit:4;stroke-opacity:1;stroke-dasharray:none"
         sodipodi:type="arc" />
      <path
         transform="matrix(0.67568527,0,0,0.67558274,-127.66485,-173.95837)"
         d="m 571,532.36218 a 159,94 0 1 1 -318,0 159,94 0 1 1 318,0 z"
         sodipodi:ry="94"
         sodipodi:rx="159"
         sodipodi:cy="532.36218"
         sodipodi:cx="412"
         id="path3776-3"
         style="fill:#ffffff;stroke:#000000;stroke-width:6.95863819;stroke-miterlimit:4;stroke-opacity:1;stroke-dasharray:none"
         sodipodi:type="arc" />
      <path
         sodipodi:nodetypes="zccz"
         inkscape:connector-curvature="0"
         id="path3780"
         d="m 177.04011,117.69159 c -48.33028,49.03482 25.14981,22.25254 27.60669,81.53603 12.08712,-36.37688 -41.23377,-57.77738 8.98822,-75.11587 -13.33759,-12.84438 11.73537,-55.454975 -36.59491,-6.42016 z"
         style="fill:#000000;fill-opacity:1;stroke:#000000;stroke-width:0.64201593px;stroke-linecap:butt;stroke-linejoin:miter;stroke-opacity:1" />
      <path
         sodipodi:nodetypes="cc"
         inkscape:connector-curvature="0"
         id="path3800"
         d="M 55.057079,94.579017 C 93.750701,85.764446 194.04136,85.361972 239.31566,93.294985"
         style="fill:none;stroke:#ffffff;stroke-width:1.9902494;stroke-linecap:butt;stroke-linejoin:miter;stroke-miterlimit:4;stroke-opacity:1;stroke-dasharray:none" />
    </g>
    <g
       id="g4230">
      <path
         sodipodi:nodetypes="ccccc"
         inkscape:connector-curvature="0"
         id="path3831"
         d="m 389.03226,272.36218 c 0,0 55.72574,15.16478 89.67742,0 -29.91928,-167.42285 26.35357,-155.47281 33.54839,-231.6129 -23.77292,-5.817507 -114.181,-11.132311 -161.29033,0.645161 -1.53182,55.659263 55.05175,59.781919 38.06452,230.967739 z"
         style="fill:none;stroke:#000000;stroke-width:7.9;stroke-linecap:butt;stroke-linejoin:miter;stroke-miterlimit:4;stroke-opacity:1;stroke-dasharray:none" />
      <path
         sodipodi:nodetypes="cc"
         inkscape:connector-curvature="0"
         id="path3833"
         d="m 353.54839,62.039602 c 51.39785,-4.495251 102.7957,-3.444635 154.19355,0.645161"
         style="fill:none;stroke:#000000;stroke-width:3.5;stroke-linecap:butt;stroke-linejoin:miter;stroke-miterlimit:4;stroke-opacity:1;stroke-dasharray:none" />
      <path
         sodipodi:open="true"
         sodipodi:end="6.2690323"
         sodipodi:start="0"
         d="m 407.74193,164.62025 a 2.5806451,2.5806451 0 1 1 -2.6e-4,-0.0365"
         sodipodi:ry="2.5806451"
         sodipodi:rx="2.5806451"
         sodipodi:cy="164.62025"
         sodipodi:cx="405.16129"
         id="path3837"
         style="fill:none;stroke:#000a00;stroke-width:1.70000005;stroke-miterlimit:4;stroke-opacity:1;stroke-dasharray:none"
         sodipodi:type="arc"
         transform="translate(-1.9354789,99.999993)" />
      <path
         sodipodi:open="true"
         sodipodi:end="6.2690323"
         sodipodi:start="0"
         d="m 407.74193,164.62025 a 2.5806451,2.5806451 0 1 1 -2.6e-4,-0.0365"
         sodipodi:ry="2.5806451"
         sodipodi:rx="2.5806451"
         sodipodi:cy="164.62025"
         sodipodi:cx="405.16129"
         id="path3837-6"
         style="fill:none;stroke:#000a00;stroke-width:1.70000005;stroke-miterlimit:4;stroke-opacity:1;stroke-dasharray:none"
         sodipodi:type="arc"
         transform="translate(-1.9354789,85.806444)" />
      <path
         sodipodi:open="true"
         sodipodi:end="6.2690323"
         sodipodi:start="0"
         d="m 407.74193,164.62025 a 2.5806451,2.5806451 0 1 1 -2.6e-4,-0.0365"
         sodipodi:ry="2.5806451"
         sodipodi:rx="2.5806451"
         sodipodi:cy="164.62025"
         sodipodi:cx="405.16129"
         id="path3837-4"
         style="fill:none;stroke:#000a00;stroke-width:1.70000005;stroke-miterlimit:4;stroke-opacity:1;stroke-dasharray:none"
         sodipodi:type="arc"
         transform="translate(4.92219e-6,66.451606)" />
      <path
         sodipodi:open="true"
         sodipodi:end="6.2690323"
         sodipodi:start="0"
         d="m 407.74193,164.62025 a 2.5806451,2.5806451 0 1 1 -2.6e-4,-0.0365"
         sodipodi:ry="2.5806451"
         sodipodi:rx="2.5806451"
         sodipodi:cy="164.62025"
         sodipodi:cx="405.16129"
         id="path3837-3"
         style="fill:none;stroke:#000a00;stroke-width:1.70000005;stroke-miterlimit:4;stroke-opacity:1;stroke-dasharray:none"
         sodipodi:type="arc"
         transform="translate(2.5806501,45.161283)" />
      <path
         sodipodi:open="true"
         sodipodi:end="6.2690323"
         sodipodi:start="0"
         d="m 407.74193,164.62025 a 2.5806451,2.5806451 0 1 1 -2.6e-4,-0.0365"
         sodipodi:ry="2.5806451"
         sodipodi:rx="2.5806451"
         sodipodi:cy="164.62025"
         sodipodi:cx="405.16129"
         id="path3837-64"
         style="fill:none;stroke:#000a00;stroke-width:1.70000005;stroke-miterlimit:4;stroke-opacity:1;stroke-dasharray:none"
         sodipodi:type="arc"
         transform="translate(0.64516621,28.387089)" />
      <path
         sodipodi:open="true"
         sodipodi:end="6.2690323"
         sodipodi:start="0"
         d="m 407.74193,164.62025 a 2.5806451,2.5806451 0 1 1 -2.6e-4,-0.0365"
         sodipodi:ry="2.5806451"
         sodipodi:rx="2.5806451"
         sodipodi:cy="164.62025"
         sodipodi:cx="405.16129"
         id="path3837-1"
         style="fill:none;stroke:#000a00;stroke-width:1.70000005;stroke-miterlimit:4;stroke-opacity:1;stroke-dasharray:none"
         sodipodi:type="arc"
         transform="translate(18.064521,89.032251)" />
      <path
         sodipodi:open="true"
         sodipodi:end="6.2690323"
         sodipodi:start="0"
         d="m 407.74193,164.62025 a 2.5806451,2.5806451 0 1 1 -2.6e-4,-0.0365"
         sodipodi:ry="2.5806451"
         sodipodi:rx="2.5806451"
         sodipodi:cy="164.62025"
         sodipodi:cx="405.16129"
         id="path3837-7"
         style="fill:none;stroke:#000a00;stroke-width:1.70000005;stroke-miterlimit:4;stroke-opacity:1;stroke-dasharray:none"
         sodipodi:type="arc"
         transform="translate(19.354844,62.580638)" />
      <path
         sodipodi:open="true"
         sodipodi:end="6.2690323"
         sodipodi:start="0"
         d="m 407.74193,164.62025 a 2.5806451,2.5806451 0 1 1 -2.6e-4,-0.0365"
         sodipodi:ry="2.5806451"
         sodipodi:rx="2.5806451"
         sodipodi:cy="164.62025"
         sodipodi:cx="405.16129"
         id="path3837-5"
         style="fill:none;stroke:#000a00;stroke-width:1.70000005;stroke-miterlimit:4;stroke-opacity:1;stroke-dasharray:none"
         sodipodi:type="arc"
         transform="translate(18.064521,38.70967)" />
      <path
         sodipodi:open="true"
         sodipodi:end="6.2690323"
         sodipodi:start="0"
         d="m 407.74193,164.62025 a 2.5806451,2.5806451 0 1 1 -2.6e-4,-0.0365"
         sodipodi:ry="2.5806451"
         sodipodi:rx="2.5806451"
         sodipodi:cy="164.62025"
         sodipodi:cx="405.16129"
         id="path3837-75"
         style="fill:none;stroke:#000a00;stroke-width:1.70000005;stroke-miterlimit:4;stroke-opacity:1;stroke-dasharray:none"
         sodipodi:type="arc"
         transform="translate(18.064521,9.0322507)" />
      <path
         sodipodi:open="true"
         sodipodi:end="6.2690323"
         sodipodi:start="0"
         d="m 407.74193,164.62025 a 2.5806451,2.5806451 0 1 1 -2.6e-4,-0.0365"
         sodipodi:ry="2.5806451"
         sodipodi:rx="2.5806451"
         sodipodi:cy="164.62025"
         sodipodi:cx="405.16129"
         id="path3837-8"
         style="fill:none;stroke:#000a00;stroke-width:1.70000005;stroke-miterlimit:4;stroke-opacity:1;stroke-dasharray:none"
         sodipodi:type="arc"
         transform="translate(29.677424,76.129025)" />
      <path
         sodipodi:open="true"
         sodipodi:end="6.2690323"
         sodipodi:start="0"
         d="m 407.74193,164.62025 a 2.5806451,2.5806451 0 1 1 -2.6e-4,-0.0365"
         sodipodi:ry="2.5806451"
         sodipodi:rx="2.5806451"
         sodipodi:cy="164.62025"
         sodipodi:cx="405.16129"
         id="path3837-68"
         style="fill:none;stroke:#000a00;stroke-width:1.70000005;stroke-miterlimit:4;stroke-opacity:1;stroke-dasharray:none"
         sodipodi:type="arc"
         transform="translate(36.129037,45.161283)" />
      <path
         sodipodi:open="true"
         sodipodi:end="6.2690323"
         sodipodi:start="0"
         d="m 407.74193,164.62025 a 2.5806451,2.5806451 0 1 1 -2.6e-4,-0.0365"
         sodipodi:ry="2.5806451"
         sodipodi:rx="2.5806451"
         sodipodi:cy="164.62025"
         sodipodi:cx="405.16129"
         id="path3837-36"
         style="fill:none;stroke:#000a00;stroke-width:1.70000005;stroke-miterlimit:4;stroke-opacity:1;stroke-dasharray:none"
         sodipodi:type="arc"
         transform="translate(41.935489,19.354831)" />
      <path
         sodipodi:open="true"
         sodipodi:end="6.2690323"
         sodipodi:start="0"
         d="m 407.74193,164.62025 a 2.5806451,2.5806451 0 1 1 -2.6e-4,-0.0365"
         sodipodi:ry="2.5806451"
         sodipodi:rx="2.5806451"
         sodipodi:cy="164.62025"
         sodipodi:cx="405.16129"
         id="path3837-39"
         style="fill:none;stroke:#000a00;stroke-width:1.70000005;stroke-miterlimit:4;stroke-opacity:1;stroke-dasharray:none"
         sodipodi:type="arc"
         transform="translate(34.193553,-3.8709751)" />
      <path
         sodipodi:open="true"
         sodipodi:end="6.2690323"
         sodipodi:start="0"
         d="m 407.74193,164.62025 a 2.5806451,2.5806451 0 1 1 -2.6e-4,-0.0365"
         sodipodi:ry="2.5806451"
         sodipodi:rx="2.5806451"
         sodipodi:cy="164.62025"
         sodipodi:cx="405.16129"
         id="path3837-19"
         style="fill:none;stroke:#000a00;stroke-width:1.70000005;stroke-miterlimit:4;stroke-opacity:1;stroke-dasharray:none"
         sodipodi:type="arc"
         transform="translate(37.41936,-45.806459)" />
      <path
         sodipodi:open="true"
         sodipodi:end="6.2690323"
         sodipodi:start="0"
         d="m 407.74193,164.62025 a 2.5806451,2.5806451 0 1 1 -2.6e-4,-0.0365"
         sodipodi:ry="2.5806451"
         sodipodi:rx="2.5806451"
         sodipodi:cy="164.62025"
         sodipodi:cx="405.16129"
         id="path3837-86"
         style="fill:none;stroke:#000a00;stroke-width:1.70000005;stroke-miterlimit:4;stroke-opacity:1;stroke-dasharray:none"
         sodipodi:type="arc"
         transform="translate(46.451618,-70.967749)" />
      <path
         sodipodi:open="true"
         sodipodi:end="6.2690323"
         sodipodi:start="0"
         d="m 407.74193,164.62025 a 2.5806451,2.5806451 0 1 1 -2.6e-4,-0.0365"
         sodipodi:ry="2.5806451"
         sodipodi:rx="2.5806451"
         sodipodi:cy="164.62025"
         sodipodi:cx="405.16129"
         id="path3837-0"
         style="fill:none;stroke:#000a00;stroke-width:1.70000005;stroke-miterlimit:4;stroke-opacity:1;stroke-dasharray:none"
         sodipodi:type="arc"
         transform="translate(33.548392,-88.387104)" />
      <path
         sodipodi:open="true"
         sodipodi:end="6.2690323"
         sodipodi:start="0"
         d="m 407.74193,164.62025 a 2.5806451,2.5806451 0 1 1 -2.6e-4,-0.0365"
         sodipodi:ry="2.5806451"
         sodipodi:rx="2.5806451"
         sodipodi:cy="164.62025"
         sodipodi:cx="405.16129"
         id="path3837-49"
         style="fill:none;stroke:#000a00;stroke-width:1.70000005;stroke-miterlimit:4;stroke-opacity:1;stroke-dasharray:none"
         sodipodi:type="arc"
         transform="translate(5.1612952,-73.548394)" />
      <path
         sodipodi:open="true"
         sodipodi:end="6.2690323"
         sodipodi:start="0"
         d="m 407.74193,164.62025 a 2.5806451,2.5806451 0 1 1 -2.6e-4,-0.0365"
         sodipodi:ry="2.5806451"
         sodipodi:rx="2.5806451"
         sodipodi:cy="164.62025"
         sodipodi:cx="405.16129"
         id="path3837-9"
         style="fill:none;stroke:#000a00;stroke-width:1.70000005;stroke-miterlimit:4;stroke-opacity:1;stroke-dasharray:none"
         sodipodi:type="arc"
         transform="translate(3.2258114,-96.774201)" />
      <path
         sodipodi:open="true"
         sodipodi:end="6.2690323"
         sodipodi:start="0"
         d="m 407.74193,164.62025 a 2.5806451,2.5806451 0 1 1 -2.6e-4,-0.0365"
         sodipodi:ry="2.5806451"
         sodipodi:rx="2.5806451"
         sodipodi:cy="164.62025"
         sodipodi:cx="405.16129"
         id="path3837-2"
         style="fill:none;stroke:#000a00;stroke-width:1.70000005;stroke-miterlimit:4;stroke-opacity:1;stroke-dasharray:none"
         sodipodi:type="arc"
         transform="translate(5.1612952,-21.29033)" />
      <path
         sodipodi:open="true"
         sodipodi:end="6.2690323"
         sodipodi:start="0"
         d="m 407.74193,164.62025 a 2.5806451,2.5806451 0 1 1 -2.6e-4,-0.0365"
         sodipodi:ry="2.5806451"
         sodipodi:rx="2.5806451"
         sodipodi:cy="164.62025"
         sodipodi:cx="405.16129"
         id="path3837-24"
         style="fill:none;stroke:#000a00;stroke-width:1.70000005;stroke-miterlimit:4;stroke-opacity:1;stroke-dasharray:none"
         sodipodi:type="arc"
         transform="translate(-19.999995,-83.870975)" />
      <path
         sodipodi:open="true"
         sodipodi:end="6.2690323"
         sodipodi:start="0"
         d="m 407.74193,164.62025 a 2.5806451,2.5806451 0 1 1 -2.6e-4,-0.0365"
         sodipodi:ry="2.5806451"
         sodipodi:rx="2.5806451"
         sodipodi:cy="164.62025"
         sodipodi:cx="405.16129"
         id="path3837-364"
         style="fill:none;stroke:#000a00;stroke-width:1.70000005;stroke-miterlimit:4;stroke-opacity:1;stroke-dasharray:none"
         sodipodi:type="arc"
         transform="translate(47.74194,90.967735)" />
      <path
         sodipodi:open="true"
         sodipodi:end="6.2690323"
         sodipodi:start="0"
         d="m 407.74193,164.62025 a 2.5806451,2.5806451 0 1 1 -2.6e-4,-0.0365"
         sodipodi:ry="2.5806451"
         sodipodi:rx="2.5806451"
         sodipodi:cy="164.62025"
         sodipodi:cx="405.16129"
         id="path3837-93"
         style="fill:none;stroke:#000a00;stroke-width:1.70000005;stroke-miterlimit:4;stroke-opacity:1;stroke-dasharray:none"
         sodipodi:type="arc"
         transform="translate(50.322586,64.516122)" />
      <path
         sodipodi:open="true"
         sodipodi:end="6.2690323"
         sodipodi:start="0"
         d="m 407.74193,164.62025 a 2.5806451,2.5806451 0 1 1 -2.6e-4,-0.0365"
         sodipodi:ry="2.5806451"
         sodipodi:rx="2.5806451"
         sodipodi:cy="164.62025"
         sodipodi:cx="405.16129"
         id="path3837-76"
         style="fill:none;stroke:#000a00;stroke-width:1.70000005;stroke-miterlimit:4;stroke-opacity:1;stroke-dasharray:none"
         sodipodi:type="arc"
         transform="translate(61.935489,-98.709685)" />
      <path
         sodipodi:nodetypes="cc"
         inkscape:connector-curvature="0"
         id="path4228"
         d="M 462.58064,210.4267 C 457.17952,132.13311 478.86375,106.3251 492.25807,80.104118"
         style="fill:none;stroke:#000000;stroke-width:2.20000005;stroke-linecap:butt;stroke-linejoin:miter;stroke-miterlimit:4;stroke-opacity:1;stroke-dasharray:none" />
    </g>
    <path
       style="fill:none;stroke:#000000;stroke-width:7.4;stroke-linecap:butt;stroke-linejoin:miter;stroke-miterlimit:4;stroke-opacity:1;stroke-dasharray:none"
       d="m 578.72497,273.15362 c 0,0 77.66122,13.22929 111.6129,-1.93549 6.11121,-174.879895 20.99783,-158.0283 21.56609,-179.069739 0.60522,-22.410124 -10.51493,-7.189041 -5.43705,-49.317353 -23.77292,-5.817507 -96.76165,-11.777472 -143.87098,0 4.07432,48.672035 -6.87066,29.099511 -6.1397,50.871093 0.47297,14.087379 12.49839,-3.248336 22.26874,179.451489 z"
       id="path3831-0"
       inkscape:connector-curvature="0"
       sodipodi:nodetypes="ccsccsc" />
    <path
       style="fill:none;stroke:#000000;stroke-width:3.5;stroke-linecap:butt;stroke-linejoin:miter;stroke-miterlimit:4;stroke-opacity:1;stroke-dasharray:none"
       d="m 561.30561,63.476199 c 51.39785,-4.495251 91.82796,-2.799474 143.22581,1.290322"
       id="path3833-5"
       inkscape:connector-curvature="0"
       sodipodi:nodetypes="cc" />
    <path
       style="fill:none;stroke:#000000;stroke-width:2.20000005;stroke-linecap:butt;stroke-linejoin:miter;stroke-miterlimit:4;stroke-opacity:1;stroke-dasharray:none"
       d="m 680.66044,255.08911 c -0.23983,-64.74521 2.73473,-105.39193 16.12905,-150.96775"
       id="path4228-1"
       inkscape:connector-curvature="0"
       sodipodi:nodetypes="cc" />
    <g
       id="g4571">
      <path
         sodipodi:open="true"
         sodipodi:end="6.2690323"
         sodipodi:start="0"
         d="m 283.56885,434.91388 a 108.85385,35.674789 0 1 1 -0.0109,-0.50489"
         sodipodi:ry="35.674789"
         sodipodi:rx="108.85385"
         sodipodi:cy="434.91388"
         sodipodi:cx="174.715"
         id="path4380-6"
         style="fill:none;stroke:#000a00;stroke-width:9.01143452;stroke-miterlimit:4;stroke-opacity:1;stroke-dasharray:none"
         sodipodi:type="arc"
         transform="matrix(0.79103717,0,0,1.0005505,14.652554,127.96406)" />
      <rect
         y="386.95364"
         x="68.30751"
         height="174.08037"
         width="168.8568"
         id="rect4400"
         style="fill:#ffffff;fill-opacity:1;stroke:none" />
      <path
         sodipodi:type="arc"
         style="fill:none;stroke:#000a00;stroke-width:4.0382452;stroke-miterlimit:4;stroke-opacity:1;stroke-dasharray:none"
         id="path4422"
         sodipodi:cx="174.715"
         sodipodi:cy="434.91388"
         sodipodi:rx="108.85385"
         sodipodi:ry="35.674789"
         d="M 270.65572,451.76747 A 108.85385,35.674789 0 0 1 78.418155,451.5479"
         sodipodi:start="0.49203796"
         sodipodi:end="2.656525"
         sodipodi:open="true"
         transform="matrix(-0.79094351,0,0,-1.0005256,290.89952,851.95361)" />
      <path
         transform="matrix(0.79094351,0,0,1.0005256,14.987603,-52.228604)"
         d="m 283.56885,434.91388 a 108.85385,35.674789 0 1 1 -217.707705,0 108.85385,35.674789 0 1 1 217.707705,0 z"
         sodipodi:ry="35.674789"
         sodipodi:rx="108.85385"
         sodipodi:cy="434.91388"
         sodipodi:cx="174.715"
         id="path4380"
         style="fill:none;stroke:#000a00;stroke-width:9.05030032;stroke-miterlimit:4;stroke-opacity:1;stroke-dasharray:none"
         sodipodi:type="arc" />
      <path
         inkscape:connector-curvature="0"
         id="path4402"
         d="m 66.777436,383.64337 0,179.02809 0.968303,0 -0.484152,0 0,0"
         style="fill:none;stroke:#000000;stroke-width:8.005;stroke-linecap:butt;stroke-linejoin:miter;stroke-miterlimit:4;stroke-opacity:1;stroke-dasharray:none" />
      <path
         sodipodi:open="true"
         transform="matrix(-0.80859508,0,0,-1,467.65454,1014.4578)"
         sodipodi:end="4.7122807"
         sodipodi:start="1.5714433"
         d="m 283.16526,598.50505 a 71.684113,57.18121 0 0 1 0.0386,-114.36241"
         sodipodi:ry="57.18121"
         sodipodi:rx="71.684113"
         sodipodi:cy="541.32385"
         sodipodi:cx="283.21164"
         id="path4424"
         style="fill:#ffffff;fill-opacity:1;stroke:#000a00;stroke-width:8.91217709;stroke-miterlimit:4;stroke-opacity:1;stroke-dasharray:none"
         sodipodi:type="arc" />
      <path
         sodipodi:open="true"
         transform="matrix(-0.81169483,0,0,-0.8926279,468.06163,954.6521)"
         sodipodi:end="4.7191108"
         sodipodi:start="1.5566725"
         d="m 283.87124,584.13064 a 46.702976,42.811062 0 1 1 -0.34567,-85.61688"
         sodipodi:ry="42.811062"
         sodipodi:rx="46.702976"
         sodipodi:cy="541.32385"
         sodipodi:cx="283.21164"
         id="path4424-9"
         style="fill:#ffffff;fill-opacity:1;stroke:#000a00;stroke-width:9.42786647;stroke-miterlimit:4;stroke-opacity:1;stroke-dasharray:none"
         sodipodi:type="arc" />
      <path
         inkscape:connector-curvature="0"
         id="path4402-6"
         d="m 239.13528,382.74523 0,179.02809 0.96831,0 -0.48416,0 0,0"
         style="fill:none;stroke:#000000;stroke-width:8.095;stroke-linecap:butt;stroke-linejoin:miter;stroke-miterlimit:4;stroke-opacity:1;stroke-dasharray:none" />
    </g>
    <g
       id="g4552">
      <path
         id="path11"
         clip-rule="evenodd"
         d="m 373.21997,379.99331 c -2.70608,3.99115 -4.67016,8.83042 -5.89227,14.71736 -1.35304,5.88695 -1.39668,4.04104 -1.48398,20.45463 -0.13093,16.51338 0.78564,54.8284 1.09117,77.02916 0.0873,21.80165 0.0436,37.61796 0.39281,53.78212 0.30553,16.16275 -1.57127,32.27841 1.92045,42.75517 3.62265,10.22733 10.12597,14.0688 18.9862,18.65863 8.64199,4.53991 20.42653,6.98452 32.47295,8.283 11.91547,1.09756 26.79891,1.4953 38.58344,-1.49668 11.60996,-3.2442 24.22378,-12.27277 30.77074,-17.11345 6.41603,-4.93765 5.76133,-5.28687 7.29017,-12.02331 1.17846,-6.98452 0.91658,-10.47678 0.91658,-28.93583 -0.17579,-18.85817 -0.39282,-59.11889 -0.83049,-81.91831 -0.43525,-22.79944 -0.96023,-40.21082 -1.39548,-52.9825 -0.52497,-12.6719 -0.13093,-15.4657 -1.65857,-22.45021 -1.61491,-7.13417 -4.36584,-13.52001 -8.07458,-19.70629 0.17459,-1.3969 0.39282,-2.7938 0.6547,-4.78938 0.12973,-1.99557 0.30551,-4.1907 0.52375,-6.78495 -4.2337,-4.63971 -10.73581,-8.13196 -19.68334,-10.47676 -9.21181,-2.34619 -20.99636,-3.99254 -34.00298,-3.59342 -13.13759,0.29933 -33.17131,2.14524 -43.42821,5.53771 -10.21327,3.24281 -15.9746,7.88252 -17.45858,14.11869 0.0873,2.29491 0.17458,4.58982 0.30552,6.93462 z"
         stroke-miterlimit="10"
         inkscape:connector-curvature="0"
         style="fill-rule:evenodd;stroke:#000000;stroke-width:0.00800000000000000;stroke-miterlimit:10;stroke-dasharray:none;fill:none;fill-opacity:1" />
      <path
         id="path13"
         clip-rule="evenodd"
         d="m 426.68686,367.37131 c -3.70995,-2.99337 -7.3326,-5.08872 -10.69337,-6.88473 -3.53537,-1.84591 -7.11438,-2.94348 -9.73316,-3.49226 -2.66243,-0.49889 -4.71382,-0.0998 -6.15415,0.449 -1.39669,0.39912 -2.00774,0.84812 -2.48785,1.74613 -0.78564,0.69845 -1.65856,1.59646 -1.44033,3.09314 0.21823,1.49668 0.43647,3.64192 2.66243,5.6375 2.00774,1.79602 5.28122,4.09093 9.82045,5.53772 4.58287,1.34701 10.25691,2.04546 17.37128,2.29491 -1.48397,-1.79602 -2.13867,-3.2927 -1.96409,-4.6896 0.0437,-1.3969 0.91658,-2.69403 2.61879,-3.69181 z"
         stroke-miterlimit="10"
         inkscape:connector-curvature="0"
         style="fill:#000000;fill-rule:evenodd;stroke:#000000;stroke-width:0.00816571000000000;stroke-miterlimit:10;fill-opacity:1" />
      <path
         id="path15"
         clip-rule="evenodd"
         d="m 421.48725,366.05271 c -8.20553,-4.39026 -13.79227,-6.93462 -17.41492,-7.08428 -3.62266,-0.29934 -4.36465,3.64192 -3.88454,5.48783 0.48011,1.79601 2.66243,3.7417 6.37238,5.28827 3.57901,1.34701 8.51106,2.69402 14.97073,3.49225 -2.00774,-2.04546 -3.01161,-3.49225 -3.01161,-4.73949 -0.0873,-1.14745 0.96023,-2.09535 2.96796,-2.44458 z"
         stroke-miterlimit="10"
         inkscape:connector-curvature="0"
         style="fill:#ffffff;fill-opacity:1;fill-rule:evenodd;stroke:#e80000;stroke-width:0.00816571;stroke-miterlimit:10;stroke-opacity:1" />
      <path
         id="path17"
         clip-rule="evenodd"
         d="m 430.52775,367.07197 c -1.09115,0.449 -2.70608,1.44679 -3.01161,2.99336 -0.39281,1.64635 -1.13481,4.93905 0.48011,6.63528 1.52763,1.39691 6.11172,3.24281 8.33648,2.29491 2.05016,-1.14745 4.1464,-6.13639 3.92695,-8.23174 -0.43524,-2.09535 -4.62529,-3.69181 -6.19658,-4.24059 -1.61491,-0.74834 -2.57514,-0.0499 -3.53535,0.54878 z"
         stroke-miterlimit="10"
         inkscape:connector-curvature="0"
         style="fill:#c0c0c0;fill-rule:evenodd;stroke:#000000;stroke-width:0.00816571;stroke-miterlimit:10" />
      <path
         id="path19"
         clip-rule="evenodd"
         d="m 431.96808,370.31478 c -0.91657,0.34922 -1.26574,2.84369 -0.69834,3.84148 0.52375,0.89801 2.57513,1.94568 3.62265,1.59646 0.96022,-0.4989 2.05138,-3.19292 1.74587,-4.04104 -0.61106,-0.99779 -3.79725,-1.84591 -4.67018,-1.3969 z"
         stroke-miterlimit="10"
         inkscape:connector-curvature="0"
         style="fill:#000000;fill-rule:evenodd;stroke:#000000;stroke-width:0.00816571000000000;stroke-miterlimit:10;fill-opacity:1" />
      <path
         id="path21"
         clip-rule="evenodd"
         d="m 458.81064,380.84143 c 2.66122,-0.14967 4.49558,-0.99779 5.67404,-2.3448 1.17845,-1.54657 1.96409,-4.6896 1.00386,-6.18628 -1.0475,-1.49668 -3.44806,-2.64413 -7.37625,-2.89358 -4.1464,-0.29934 -9.73314,-0.24945 -17.10939,0.69845 0.0436,-1.34701 -0.43647,-2.24502 -1.61493,-3.24281 -1.26574,-1.04767 -3.579,-2.3448 -5.23756,-2.3448 -1.74465,-0.14966 -3.27349,0.4989 -4.75625,1.94569 l -3.36079,-1.99558 c 1.48399,-1.19734 4.75746,-1.99557 9.82045,-2.19513 5.15028,-0.39911 13.74863,-0.49889 20.3841,0.64856 6.54576,0.99779 14.40332,4.09093 18.20056,6.03662 3.44808,1.74612 5.7177,3.59203 3.09891,5.53771 -2.75215,1.99558 -8.77536,4.04104 -18.72675,6.33595 z"
         stroke-miterlimit="10"
         inkscape:connector-curvature="0"
         style="fill:none;fill-rule:evenodd;stroke:#000000;stroke-width:1.508;stroke-miterlimit:10;stroke-dasharray:none" />
      <path
         id="path23"
         clip-rule="evenodd"
         d="m 424.28346,376.7505 c -0.43646,0 0.0437,0.39912 1.26574,0.99779 1.26576,0.64856 3.79725,2.19513 6.24144,2.54436 2.40056,0.0998 4.84476,-0.29934 7.81272,-1.3969 0.0861,0.449 0.87293,1.04767 2.3557,1.59646 1.44033,0.54878 3.44926,1.04767 6.19779,1.69623 -2.83702,0.29934 -6.45967,0.4989 -11.21713,0.79823 -4.93204,0.19956 -10.73703,0.74834 -17.06576,0.69846 -6.37238,-0.0998 -13.79228,-0.59868 -20.42654,-1.49669 -6.6779,-1.19734 -13.09393,-2.69402 -19.42267,-5.03882 -0.17458,-1.64635 0.87294,-3.2927 3.49172,-5.1386 2.57514,-1.8958 6.41603,-3.64193 11.69725,-5.6375 2.40056,2.7938 4.93205,4.93905 8.11824,6.63528 3.0116,1.59646 6.72155,2.49447 10.30056,3.24281 3.53657,0.49889 7.02828,0.84812 10.65094,0.49889 z"
         stroke-miterlimit="10"
         inkscape:connector-curvature="0"
         style="fill:none;stroke:#000000;stroke-miterlimit:10;stroke-opacity:1" />
      <path
         id="path25"
         clip-rule="evenodd"
         d="m 414.16033,357.59299 c 5.6304,-1.04767 10.73703,-1.49668 15.84366,-1.89579 4.97569,-0.4989 8.64078,-0.39912 14.05416,-0.0998 5.23636,0.34922 12.83205,1.34701 17.71923,2.19513 4.80112,0.74834 7.72543,1.09757 11.13105,2.39469 3.35957,1.19734 6.72156,3.09314 8.7281,4.53993 1.83435,1.24723 2.53269,2.19513 2.4454,3.59203 -0.21824,1.24724 -1.22211,2.69403 -3.36079,4.34038 -0.30552,-1.79602 -2.13867,-3.54215 -5.01934,-5.23838 -2.9243,-1.8958 -7.20165,-3.7916 -12.83204,-5.08872 -5.89228,-1.44679 -15.14531,-2.14524 -21.86686,-2.29491 -6.85249,-0.0998 -12.78841,0.64856 -18.46245,2.04547 -2.79337,-1.49669 -5.58675,-2.99337 -8.38012,-4.49005 z"
         stroke-miterlimit="10"
         inkscape:connector-curvature="0"
         style="fill:#000000;fill-rule:evenodd;stroke:#000000;stroke-width:0.00816571000000000;stroke-miterlimit:10;fill-opacity:1" />
      <path
         id="path27"
         clip-rule="evenodd"
         d="m 394.91225,358.69056 c -1.92044,0.29933 -4.27735,1.19734 -7.07072,2.49447 -3.0116,1.3969 -7.9,3.39247 -9.95139,5.38805 -2.13867,1.8459 -2.4442,3.49225 -2.26961,5.1386 0.17458,1.3969 1.39668,2.59425 3.49171,3.59203 -0.65469,-1.19734 0.34917,-2.54436 3.01161,-4.24059 2.66243,-1.74613 6.85249,-3.49226 12.74476,-5.6375 -0.5674,-0.89801 -0.82928,-1.99557 -0.78564,-3.09314 -0.0873,-1.14745 0.34917,-2.29491 0.82928,-3.64192 z"
         stroke-miterlimit="10"
         inkscape:connector-curvature="0"
         style="fill:#000000;fill-rule:evenodd;stroke:#000000;stroke-width:0.00816571000000000;stroke-miterlimit:10;fill-opacity:1" />
      <path
         id="path29"
         clip-rule="evenodd"
         d="m 374.35478,372.26046 c -0.39282,0.14967 -0.39282,0.84812 -0.48011,2.09535 0.0436,1.19735 0,2.94348 0.34917,5.23839 2.66243,2.09535 5.89227,3.59203 9.86409,5.08871 3.92818,1.19735 7.85636,2.14525 13.6177,3.04325 5.58674,0.9479 13.70498,1.8958 20.12101,2.44458 6.19779,0.34922 10.12597,0.39911 17.6768,-0.0499 7.5957,-0.39911 18.68069,-0.89801 27.19173,-2.44458 8.29404,-1.84591 15.53815,-4.29048 22.25969,-7.88251 l 1.39668,-10.27721 c -1.65856,3.04325 -4.49558,5.38805 -8.68565,7.58318 -4.32099,1.94568 -10.51879,3.54214 -16.41105,4.78938 -6.06686,1.19734 -13.05028,1.8459 -19.0735,2.49447 -5.9359,0.54878 -10.56122,0.74833 -16.58564,0.79823 -6.19779,-0.14968 -14.35968,-0.54879 -20.12101,-0.9978 -5.84862,-0.54878 -10.4315,-1.29711 -14.7525,-2.24501 -4.49558,-1.14746 -8.68564,-2.69403 -11.39172,-4.2406 -2.74972,-1.69624 -4.40828,-3.44236 -4.97569,-5.43794 z"
         stroke-miterlimit="10"
         inkscape:connector-curvature="0"
         style="fill:#000000;fill-rule:evenodd;stroke:#000000;stroke-width:0.00816571000000000;stroke-miterlimit:10;fill-opacity:1" />
      <path
         id="path31"
         clip-rule="evenodd"
         d="m 373.87467,381.74409 c -1.57127,3.54214 -2.74972,6.9845 -3.70995,10.32709 -0.96022,3.2927 -1.57127,4.93905 -2.00773,9.57876 -0.6547,4.49004 -1.3094,10.17742 -1.3094,17.86039 0,7.63306 0.17459,16.8626 1.00387,27.88814 12.09007,8.58097 21.64863,13.071 28.85029,13.27057 7.15802,-0.0499 6.67791,-13.96902 14.05416,-12.12311 7.24531,1.94568 23.52544,23.79722 29.50377,23.59766 5.76134,-0.449 0.21945,-25.69302 5.58675,-25.69302 5.41217,-0.14967 21.03759,25.59324 26.49339,25.44357 5.19393,-0.29934 1.3967,-24.94467 5.28122,-26.59102 3.97183,-1.59646 9.77681,3.69181 18.06963,16.61316 -0.13094,-7.33373 -0.30553,-14.81714 -0.52498,-22.84933 -0.26186,-8.23174 -0.56739,-18.30939 -0.91656,-25.04445 -0.43525,-6.73506 -0.26188,-9.32931 -1.65858,-14.71737 -1.52761,-5.43793 -3.92695,-11.27499 -7.20044,-17.51116 -4.45195,2.94348 -9.95138,5.33817 -17.0221,7.18407 -7.11439,1.79602 -15.66909,2.94347 -25.00942,3.64192 -9.60222,0.54879 -21.25581,0.99779 -30.94533,0.19956 -9.7768,-0.89801 -19.77184,-3.54214 -26.27516,-5.23838 -6.54575,-1.8958 -10.47393,-3.84148 -12.26343,-5.83705 z"
         stroke-miterlimit="10"
         inkscape:connector-curvature="0"
         style="fill:none;fill-rule:evenodd;stroke:#000000;stroke-width:8.076;stroke-miterlimit:10;stroke-dasharray:none" />
      <path
         id="path33"
         clip-rule="evenodd"
         d="m 367.72052,451.08563 0.87293,52.28543 c 18.20056,8.03219 30.37792,11.12394 37.05582,8.73065 6.59062,-2.64414 -4.97569,-22.25066 2.18233,-22.64978 7.07072,-0.20093 32.21107,21.25287 39.89285,21.25287 7.50718,-0.34922 -0.82928,-22.40033 5.10662,-22.10098 5.93592,0.49889 25.09671,24.29611 29.85418,24.44578 4.53923,-0.19957 -5.32487,-22.9491 -2.83702,-24.59546 2.35691,-1.44678 7.94364,3.39248 16.93481,15.31743 l -1.00387,-39.41259 c -7.3326,-11.42467 -12.87449,-16.11426 -16.62929,-14.26835 -3.79723,1.94568 -0.74077,25.2939 -5.97956,25.39367 -5.49946,-0.14967 -20.95028,-25.34379 -25.79505,-25.54334 -4.8011,-0.19956 0,21.60209 -2.92431,24.59545 -3.22985,2.89357 -9.73194,-3.14303 -15.3199,-6.93462 -5.76133,-4.04104 -13.61769,-15.71515 -18.15691,-16.36372 -4.53923,-0.54877 -4.80112,11.37478 -8.86023,13.07102 -4.23371,1.4468 -9.99504,-1.69624 -15.75637,-3.84148 -5.76133,-2.1979 -11.91548,-5.39082 -18.63703,-9.38198 z"
         stroke-miterlimit="10"
         inkscape:connector-curvature="0"
         style="fill:#000000;fill-rule:evenodd;stroke:#000000;stroke-width:8.07600000000000051;stroke-miterlimit:10;stroke-dasharray:none;fill-opacity:1" />
      <path
         id="path35"
         clip-rule="evenodd"
         d="m 496.25928,507.46199 c -7.85636,-11.97484 -12.52653,-17.3116 -13.83591,-15.81492 -1.48399,1.34701 5.71767,19.90446 5.58673,24.29473 -0.17579,4.29187 -0.78562,5.43932 -6.37357,1.49668 -5.80378,-4.13943 -22.43428,-23.84711 -27.1481,-25.8413 -4.62653,-1.94568 0.0436,9.37921 -0.48011,13.56989 -0.56863,3.84011 0.61105,9.62866 -3.1862,9.87811 -4.10397,0 -13.4443,-5.1885 -20.12222,-8.83042 -6.85248,-3.74171 -15.58177,-11.82378 -19.29172,-12.87145 -3.57901,-0.99779 -2.18232,3.09314 -2.05138,6.68517 0.0873,3.54214 3.31713,11.37477 2.13868,14.26835 -1.39669,2.79382 -3.05526,3.59204 -10.16962,2.3947 -7.28896,-1.34703 -17.98234,-4.63972 -32.73483,-10.07627 0.0873,15.71514 0.43646,29.83244 0.5674,42.75517 0.0873,12.92134 0.43647,24.04806 0.5674,34.17419 6.32874,7.28386 14.40333,12.87147 24.70388,16.9624 10.34421,4.04103 25.40224,6.4856 36.57572,7.33374 11.04255,0.64854 18.50729,0.3492 29.28676,-3.39249 10.78066,-3.94125 21.95416,-10.42548 34.52435,-19.85597 0.83048,-15.71513 1.17966,-29.58437 1.52883,-42.55559 0.13214,-12.97401 0.26309,-24.2989 -0.0861,-34.57472 z"
         stroke-miterlimit="10"
         inkscape:connector-curvature="0"
         style="fill:none;fill-rule:evenodd;stroke:#000000;stroke-width:8.076;stroke-miterlimit:10;stroke-dasharray:none" />
    </g>
    <g
       id="g4567">
      <path
         transform="translate(-31,-17)"
         d="m 748,501.36218 a 88,88 0 1 1 -176,0 88,88 0 1 1 176,0 z"
         sodipodi:ry="88"
         sodipodi:rx="88"
         sodipodi:cy="501.36218"
         sodipodi:cx="660"
         id="path4520"
         style="fill:none;stroke:#000000;stroke-width:22.6760006;stroke-miterlimit:10;stroke-opacity:1;stroke-dasharray:none"
         sodipodi:type="arc" />
      <path
         sodipodi:nodetypes="cc"
         inkscape:connector-curvature="0"
         id="path4542"
         d="m 577,415.36218 102,142"
         style="fill:none;stroke:#000000;stroke-width:28.39999962;stroke-linecap:butt;stroke-linejoin:miter;stroke-miterlimit:4;stroke-opacity:1;stroke-dasharray:none" />
    </g>
  </g>
</svg>
